<svg width="24" height="24" aria-label="Family RR" viewBox="0 0 24 24" fill="none" xmlns="http://www.w3.org/2000/svg" stroke="currentColor" stroke-width="2" stroke-linecap="round" stroke-linejoin="round">
    <circle cx="6" cy="5" r="1.6"/>
    <path d="M4 8.5h4c.4 0 .7.3.7.7v4.3H7.5V21h-3v-7.5H3.3V9.2c0-.4.3-.7.7-.7z"/>
    <circle cx="15" cy="5" r="1.6"/>
    <path d="M13 8.5c-1.2 0-2.2.8-2.5 1.9L9.5 14.5h1.5V21h4v-6.5H17l-1-4.1c-.3-1.1-1.3-1.9-2.5-1.9z"/>
    <circle cx="20" cy="7.5" r="1.2"/>
    <path d="M19 10.5h2c.3 0 .5.2.5.5v3h-1V19h-2v-5h-1V11c0-.3.2-.5.5-.5z"/>
  </svg>
